<?xml version="1.0" encoding="UTF-8" standalone="no"?>
<!-- Created with Inkscape (http://www.inkscape.org/) -->

<svg
   xmlns:dc="http://purl.org/dc/elements/1.1/"
   xmlns:cc="http://creativecommons.org/ns#"
   xmlns:rdf="http://www.w3.org/1999/02/22-rdf-syntax-ns#"
   xmlns:svg="http://www.w3.org/2000/svg"
   xmlns="http://www.w3.org/2000/svg"
   xmlns:sodipodi="http://sodipodi.sourceforge.net/DTD/sodipodi-0.dtd"
   xmlns:inkscape="http://www.inkscape.org/namespaces/inkscape"
   version="1.0"
   width="90.827354"
   height="90.862747"
   id="svg2159"
   inkscape:version="0.91 r13725"
   sodipodi:docname="peanocurvelight.svg">
  <metadata
     id="metadata9">
    <rdf:RDF>
      <cc:Work
         rdf:about="">
        <dc:format>image/svg+xml</dc:format>
        <dc:type
           rdf:resource="http://purl.org/dc/dcmitype/StillImage" />
        <dc:title></dc:title>
      </cc:Work>
    </rdf:RDF>
  </metadata>
  <sodipodi:namedview
     pagecolor="#ffffff"
     bordercolor="#666666"
     borderopacity="1"
     objecttolerance="10"
     gridtolerance="10"
     guidetolerance="10"
     inkscape:pageopacity="0"
     inkscape:pageshadow="2"
     inkscape:window-width="1855"
     inkscape:window-height="1056"
     id="namedview7"
     showgrid="false"
     fit-margin-top="0"
     fit-margin-left="0"
     fit-margin-right="0"
     fit-margin-bottom="0"
     inkscape:zoom="2"
     inkscape:cx="183.88453"
     inkscape:cy="13.359892"
     inkscape:window-x="65"
     inkscape:window-y="24"
     inkscape:window-maximized="1"
     inkscape:current-layer="svg2159" />
  <defs
     id="defs2162">
    <clipPath
       clipPathUnits="userSpaceOnUse"
       id="clipPath4194">
      <rect
         style="opacity:1;fill:#000000;fill-opacity:0.22222224;fill-rule:nonzero;stroke:none;stroke-width:1.79999995;stroke-linecap:round;stroke-miterlimit:4;stroke-dasharray:none;stroke-opacity:1"
         id="rect4196"
         width="181.66238"
         height="181.72549"
         x="37.104366"
         y="10.232265" />
    </clipPath>
  </defs>
  <path
     d="m 37.61204,273.3311 0,-10.1 0,-10.1 10.1,0 0,10.1 0,10.1 10.1,0 0,-10.1 0,-10.1 0,-10.1 0,-10.1 0,-10.1 -10.1,0 0,10.1 0,10.1 -10.1,0 0,-10.1 0,-10.1 0,-10.1 0,-10.1 0,-10.1 10.1,0 0,10.1 0,10.1 10.1,0 0,-10.1 0,-10.1 10.1,0 0,10.1 0,10.1 10.1,0 0,-10.1 0,-10.1 10.1,0 0,10.1 0,10.1 0,10.1 0,10.1 0,10.1 -10.1,0 0,-10.1 0,-10.1 -10.1,0 0,10.1 0,10.1 0,10.1 0,10.1 0,10.1 10.1,0 0,-10.1 0,-10.1 10.1,0 0,10.1 0,10.1 10.1,0 0,-10.1 0,-10.1 10.1,0 0,10.1 0,10.1 10.1,0 0,-10.1 0,-10.1 0,-10.1 0,-10.1 0,-10.1 -10.1,0 0,10.1 0,10.1 -10.1,0 0,-10.1 0,-10.1 0,-10.1 0,-10.1 0,-10.1 10.1,0 0,10.1 0,10.1 10.1,0 0,-10.1 0,-10.1 0,-10.1 0,-10.1 0,-10.1 -10.1,0 0,10.1 0,10.1 -10.1,0 0,-10.1 0,-10.1 0,-10.1 0,-10.1 0,-10.1 10.1,0 0,10.1 0,10.1 10.1,0 0,-10.1 0,-10.1 0,-10.1 0,-10.1 0,-10.1 -10.1,0 0,10.1 0,10.1 -10.1,0 0,-10.1 0,-10.1 -10.1,0 0,10.1 0,10.1 -10.1,0 0,-10.1 0,-10.1 -10.1,0 0,10.1 0,10.1 0,10.1 0,10.1 0,10.1 10.1,0 0,-10.1 0,-10.1 10.1,0 0,10.1 0,10.1 0,10.1 0,10.1 0,10.1 -10.1,0 0,-10.1 0,-10.1 -10.1,0 0,10.1 0,10.1 -10.1,0 0,-10.1 0,-10.1 -10.1,0 0,10.1 0,10.1 -10.1,0 0,-10.1 0,-10.1 0,-10.1 0,-10.1 0,-10.1 10.1,0 0,10.1 0,10.1 10.1,0 0,-10.1 0,-10.1 0,-10.1 0,-10.1 0,-10.1 -10.1,0 0,10.1 0,10.1 -10.1,0 0,-10.1 0,-10.1 0,-10.099998 0,-10.1 0,-10.10001 10.1,0 0,10.10001 0,10.1 10.1,0 0,-10.1 0,-10.10001 0,-10.1 0,-10.1 0,-10.1 -10.1,0 0,10.1 0,10.1 -10.1,0 0,-10.1 0,-10.1 0,-10.1 0,-10.1 0,-10.1 10.1,0 0,10.1 0,10.1 10.1,0 0,-10.1 0,-10.1 10.1,0 0,10.1 0,10.1 10.1,0 0,-10.1 0,-10.1 10.1,0 0,10.1 0,10.1 0,10.1 0,10.1 0,10.1 -10.1,0 0,-10.1 0,-10.1 -10.1,0 0,10.1 0,10.1 0,10.1 0,10.10001 0,10.1 10.1,0 0,-10.1 0,-10.10001 10.1,0 0,10.10001 0,10.1 10.1,0 0,-10.1 0,-10.10001 10.1,0 0,10.10001 0,10.1 10.1,0 0,-10.1 0,-10.10001 0,-10.1 0,-10.1 0,-10.1 -10.1,0 0,10.1 0,10.1 -10.1,0 0,-10.1 0,-10.1 0,-10.1 0,-10.1 0,-10.1 10.1,0 0,10.1 0,10.1 10.1,0 0,-10.1 0,-10.1 10.1,0 0,10.1 0,10.1 10.10001,0 0,-10.1 0,-10.1 10.1,0 0,10.1 0,10.1 0,10.1 0,10.1 0,10.1 -10.1,0 0,-10.1 0,-10.1 -10.10001,0 0,10.1 0,10.1 0,10.1 0,10.10001 0,10.1 10.10001,0 0,-10.1 0,-10.10001 10.1,0 0,10.10001 0,10.1 10.1,0 0,-10.1 0,-10.10001 10.1,0 0,10.10001 0,10.1 10.1,0 0,-10.1 0,-10.10001 0,-10.1 0,-10.1 0,-10.1 -10.1,0 0,10.1 0,10.1 -10.1,0 0,-10.1 0,-10.1 0,-10.1 0,-10.1 0,-10.1 10.1,0 0,10.1 0,10.1 10.1,0 0,-10.1 0,-10.1 10.1,0 0,10.1 0,10.1 10.1,0 0,-10.1 0,-10.1 10.1,0 0,10.1 0,10.1 0,10.1 0,10.1 0,10.1 -10.1,0 0,-10.1 0,-10.1 -10.1,0 0,10.1 0,10.1 0,10.1 0,10.10001 0,10.1 10.1,0 0,-10.1 0,-10.10001 10.1,0 0,10.10001 0,10.1 0,10.099998 0,10.1 0,10.1 -10.1,0 0,-10.1 0,-10.1 -10.1,0 0,10.1 0,10.1 0,10.1 0,10.1 0,10.1 10.1,0 0,-10.1 0,-10.1 10.1,0 0,10.1 0,10.1 0,10.1 0,10.1 0,10.1 -10.1,0 0,-10.1 0,-10.1 -10.1,0 0,10.1 0,10.1 -10.1,0 0,-10.1 0,-10.1 -10.1,0 0,10.1 0,10.1 -10.1,0 0,-10.1 0,-10.1 0,-10.1 0,-10.1 0,-10.1 10.1,0 0,10.1 0,10.1 10.1,0 0,-10.1 0,-10.1 0,-10.1 0,-10.1 0,-10.1 -10.1,0 0,10.1 0,10.1 -10.1,0 0,-10.1 0,-10.1 -10.1,0 0,10.1 0,10.1 -10.1,0 0,-10.1 0,-10.1 -10.10001,0 0,10.1 0,10.1 0,10.1 0,10.1 0,10.1 10.10001,0 0,-10.1 0,-10.1 10.1,0 0,10.1 0,10.1 0,10.1 0,10.1 0,10.1 -10.1,0 0,-10.1 0,-10.1 -10.10001,0 0,10.1 0,10.1 0,10.1 0,10.1 0,10.1 10.10001,0 0,-10.1 0,-10.1 10.1,0 0,10.1 0,10.1 0,10.1 0,10.1 0,10.1 -10.1,0 0,-10.1 0,-10.1 -10.10001,0 0,10.1 0,10.1 0,10.1 0,10.1 0,10.1 10.10001,0 0,-10.1 0,-10.1 10.1,0 0,10.1 0,10.1 10.1,0 0,-10.1 0,-10.1 10.1,0 0,10.1 0,10.1 10.1,0 0,-10.1 0,-10.1 0,-10.1 0,-10.1 0,-10.1 -10.1,0 0,10.1 0,10.1 -10.1,0 0,-10.1 0,-10.1 0,-10.1 0,-10.1 0,-10.1 10.1,0 0,10.1 0,10.1 10.1,0 0,-10.1 0,-10.1 10.1,0 0,10.1 0,10.1 10.1,0 0,-10.1 0,-10.1 10.1,0 0,10.1 0,10.1 0,10.1 0,10.1 0,10.1 -10.1,0 0,-10.1 0,-10.1 -10.1,0 0,10.1 0,10.1 0,10.1 0,10.1 0,10.1 10.1,0 0,-10.1 0,-10.1 10.1,0 0,10.1 0,10.1 10.1,0 0,-10.1 0,-10.1 10.1,0 0,10.1 0,10.1 10.1,0 0,-10.1 0,-10.1 0,-10.1 0,-10.1 0,-10.1 -10.1,0 0,10.1 0,10.1 -10.1,0 0,-10.1 0,-10.1 0,-10.1 0,-10.1 0,-10.1 10.1,0 0,10.1 0,10.1 10.1,0 0,-10.1 0,-10.1 10.1,0 0,10.1 0,10.1 10.1,0 0,-10.1 0,-10.1 10.1,0 0,10.1 0,10.1 0,10.1 0,10.1 0,10.1 -10.1,0 0,-10.1 0,-10.1 -10.1,0 0,10.1 0,10.1 0,10.1 0,10.1 0,10.1 10.1,0 0,-10.1 0,-10.1 10.1,0 0,10.1 0,10.1 10.1,0 0,-10.1 0,-10.1 10.1,0 0,10.1 0,10.1 10.1,0 0,-10.1 0,-10.1 0,-10.1 0,-10.1 0,-10.1 -10.1,0 0,10.1 0,10.1 -10.1,0 0,-10.1 0,-10.1 0,-10.1 0,-10.1 0,-10.1 10.1,0 0,10.1 0,10.1 10.1,0 0,-10.1 0,-10.1 0,-10.1 0,-10.1 0,-10.1 -10.1,0 0,10.1 0,10.1 -10.1,0 0,-10.1 0,-10.1 0,-10.1 0,-10.1 0,-10.1 10.1,0 0,10.1 0,10.1 10.1,0 0,-10.1 0,-10.1 0,-10.1 0,-10.1 0,-10.1 -10.1,0 0,10.1 0,10.1 -10.1,0 0,-10.1 0,-10.1 -10.1,0 0,10.1 0,10.1 -10.1,0 0,-10.1 0,-10.1 -10.1,0 0,10.1 0,10.1 0,10.1 0,10.1 0,10.1 10.1,0 0,-10.1 0,-10.1 10.1,0 0,10.1 0,10.1 0,10.1 0,10.1 0,10.1 -10.1,0 0,-10.1 0,-10.1 -10.1,0 0,10.1 0,10.1 -10.1,0 0,-10.1 0,-10.1 -10.1,0 0,10.1 0,10.1 -10.1,0 0,-10.1 0,-10.1 0,-10.1 0,-10.1 0,-10.1 10.1,0 0,10.1 0,10.1 10.1,0 0,-10.1 0,-10.1 0,-10.1 0,-10.1 0,-10.1 -10.1,0 0,10.1 0,10.1 -10.1,0 0,-10.1 0,-10.1 0,-10.099998 0,-10.1 0,-10.10001 10.1,0 0,10.10001 0,10.1 10.1,0 0,-10.1 0,-10.10001 0,-10.1 0,-10.1 0,-10.1 -10.1,0 0,10.1 0,10.1 -10.1,0 0,-10.1 0,-10.1 0,-10.1 0,-10.1 0,-10.1 10.1,0 0,10.1 0,10.1 10.1,0 0,-10.1 0,-10.1 10.1,0 0,10.1 0,10.1 10.1,0 0,-10.1 0,-10.1 10.1,0 0,10.1 0,10.1 0,10.1 0,10.1 0,10.1 -10.1,0 0,-10.1 0,-10.1 -10.1,0 0,10.1 0,10.1 0,10.1 0,10.10001 0,10.1 10.1,0 0,-10.1 0,-10.10001 10.1,0 0,10.10001 0,10.1 10.1,0 0,-10.1 0,-10.10001 10.1,0 0,10.10001 0,10.1 10.1,0 0,-10.1 0,-10.10001 0,-10.1 0,-10.1 0,-10.1 -10.1,0 0,10.1 0,10.1 -10.1,0 0,-10.1 0,-10.1 0,-10.1 0,-10.1 0,-10.1 10.1,0 0,10.1 0,10.1 10.1,0 0,-10.1 0,-10.1"
     style="fill:none;fill-opacity:1;stroke:#dddddf;stroke-width:1px;stroke-linecap:butt;stroke-linejoin:miter;stroke-opacity:1"
     id="path16166"
     inkscape:connector-curvature="0"
     clip-path="url(#clipPath4194)"
     transform="matrix(0.5,0,0,0.5,-18.55602,-5.1161327)" />
</svg>
